<svg xmlns="http://www.w3.org/2000/svg" xmlns:xlink="http://www.w3.org/1999/xlink" width="93" height="42" viewBox="0 0 93 42">
    <defs>
        <path id="a" d="M.004 41.996V0h18.527v41.996z"/>
    </defs>
    <g fill="none" fill-rule="evenodd">
        <path fill="#000" d="M11.626 24.62c-2.542.702-4.59.616-5.756-.274-2.992-2.328-.706-6.978.1-8.366-1.458 1.694-2.91 3.41-4.048 5.253C.14 24.135-.623 27.316.588 29.362c2.168 3.69 7.357 1.988 10.672.503l30.755-13.75-30.39 8.506z"/>
        <g transform="translate(74)">
            <mask id="b" fill="#fff">
                <use xlink:href="#a"/>
            </mask>
            <path fill="#FFFFFE" d="M14.182 0H4.347A4.352 4.352 0 0 0 0 4.347v33.3C0 40.047 1.948 42 4.347 42h9.828a4.363 4.363 0 0 0 4.356-4.353v-33.3A4.355 4.355 0 0 0 14.181 0" mask="url(#b)"/>
        </g>
        <path fill="#B52532" d="M85.742 7.7l.01.142c.3.174.452.317.754.511.803.505 1.79 1.402 1.666 4.494.225.675.324 2 .532 2.425.417.828.696 1.367.818 2.149 0 0 .12 1.217.278 1.305.829.187.59.268.71.41.13.167.608.16.608.605.166.223.289.454.383.694V4.347a3.325 3.325 0 0 0-3.32-3.322h-3.177c.51.181.799.395.967.735.41.036.898.955.138 2.313.337.224.074.56-.168.948-.07.125-.148.346-.372.332-.289.607-.637 1.195-.9 1.232-.08.098-.138.36-.018.482.386.174.858.411 1.091.633M91.5 22.615a2.96 2.96 0 0 1-2.757 1.867 2.96 2.96 0 0 1-2.963-2.962c0-1.397.96-2.57 2.264-2.882-.342-.855-1.063-2.24-1.277-2.695-.203-.451-.691-3.269-.796-3.826-.024-.122-1.279.728-1.281.78-.073.072-.941 2.338-.978 2.46-.017.077-.02.38-.02.38s.427.053.673.797c.243.744.984 3.458.984 3.458s-.2.207-.21.195c.937 3.133.61 4.482 1.03 5.4.528 1.295.67 1.126 1.123 2.214.325.793.687 3.912.808 4.05.505.641.777 1.142.777 1.503 0 .364-.428 1.438-.272 2.064.095.368.144 1.193.316 1.35 0 0 .157.31.08.447-.022.048-.067.12-.047.176.279.984 1.178 2.662-.279 3.54h.031a3.302 3.302 0 0 0 2.795-3.284V22.615"/>
        <path fill="#253B73" d="M87.759 37.009c-.534-.477-.178-.678-.199-.867-.352-1.454-1.507-2.334-.91-2.814-.147-.48-.447-1.084-.436-1.083-1.801-1.034-3.334-2.713-3.595-2.96-.316-.343-.853-.687-.955-.966-.432-.398-2.555-3.408-3.049-4.517l-.861-.121c-.392-1.601-1.7-2.943-1.733-4.548-.012-.606.275-1.906.382-2.165.105-.263.606-.695.606-.695v-.43c-1.879.054-1.338-.138-1.662-.868-.228-.506-.065-.617.017-.968.252-1.036 1.09-2.633 1.436-3.358.106-.367.468-1.25.468-1.25 1.401-2.851 1.924-2.642 3.587-2.802l.082-.118c1.667-.072 1.394-.198 1.63-1.804-.244.105-.316-.502-.316-.502-.133-.914.253-.741.436-.76.039-1.501.193-1.974 1.276-2.388H78.35a3.324 3.324 0 0 0-3.324 3.324v33.298a3.325 3.325 0 0 0 3.324 3.326h9.833c-1.126-.608-.462-1.766-.423-3.964"/>
        <path fill="#FFFFFE" d="M77.82 38.88h-.702v-6.029h1.111l.894 4.94c-.075-1.182-.176-2.609-.176-3.825v-1.115h.703v6.03h-1.02l-.894-4.831c.059 1.115.084 2.002.084 2.93v1.9zm6.182-5.353h-.042c-.05.726-.15 2.001-.184 2.406l-.091 1.039h.626l-.092-1.039c-.033-.413-.15-1.671-.217-2.406zm.36 4.129h-.727l-.101 1.224h-.81l.727-6.029h1.153l.701 6.03h-.843l-.1-1.225zm-3.35-4.045v1.993h.3c.284 0 .36-.102.36-.43v-1.157c0-.28-.085-.406-.352-.406h-.309zm0 2.652v1.857h.308c.276 0 .351-.144.351-.43v-1.022c0-.296-.092-.405-.36-.405h-.3zm-.803 2.617v-6.029h1.17c.676 0 1.094.364 1.094 1.208v.895c0 .548-.167.827-.401.963.234.16.401.43.401.886v.879c0 .827-.443 1.198-1.094 1.198h-1.17z"/>
        <path stroke="#000" d="M58.5 5.141V39.91"/>
    </g>
</svg>
